<svg width="1235px" height="509px" viewBox="-92.8689026755182 106.00049609659905 697.7378053510364 287.5696703835446">
  <defs>
    <pattern id="o_fdd456kbj_4" x="0" y="0" width="18.07903625201066" height="18.07903625201066" patternUnits="userSpaceOnUse" class="css-1e1xezv">
      <rect x="0" y="0" width="18.07903625201066" height="18.07903625201066"/>
      <circle cx="0" cy="0" r="0.8474548243129997"/>
      <circle cx="18.07903625201066" cy="0" r="0.8474548243129997"/>
      <circle cx="18.07903625201066" cy="18.07903625201066" r="0.8474548243129997"/>
      <circle cx="0" cy="18.07903625201066" r="0.8474548243129997"/>
    </pattern>
  </defs>
  <rect fill="url(#o_fdd456kbj_4)" stroke-width="0.5649698828753331" x="0" y="0" width="512" height="512" class="css-f3jo1l"/>
  <svg xmlns="http://www.w3.org/2000/svg" width="512" height="512" viewBox="0 0 512 512" style="overflow: visible" data-bbox="2 198.80892982444735 510.370236525579 74.63525601978901">
    <path text-anchor="middle" offset="0.5" fill="#000000" space="preserve" font-scale="contain" font-size="103" font-family="Fjalla One" text="SoundSync Hub" font-style="normal" font-weight="400" data-fl-textpath="" transform="matrix(0.586894154548645, -0.0030024100560694933, 0.003252074820920825, 0.6356971263885498, 292.1892395019531, 258.0885314941406)" letter-spacing="12" data-uid="o_fdd456kbj_7" d="M-375.949-17.4L-375.949-17.4Q-375.949-20.17 -375.619-22.51Q-375.289-24.84 -374.639-27.56L-374.639-27.56L-364.529-27.56L-364.529-23.39Q-364.529-19.92 -364.099-17.25Q-363.679-14.58 -362.689-12.75Q-361.709-10.91 -360.079-9.98Q-358.439-9.05 -356.079-9.05L-356.079-9.05Q-352.359-9.05 -350.399-11.09Q-348.439-13.13 -348.439-17.05L-348.439-17.05Q-348.439-19.06 -348.709-20.75Q-348.989-22.43 -349.669-24.09Q-350.349-25.75 -351.499-27.59Q-352.659-29.42 -354.469-31.68L-354.469-31.68L-368.049-47.83Q-371.669-52.46 -373.629-57.16Q-375.589-61.86 -375.589-67.19L-375.589-67.19Q-375.589-71.47 -374.259-75.04Q-372.929-78.61 -370.409-81.2Q-367.899-83.79 -364.199-85.22Q-360.509-86.65 -355.829-86.65L-355.829-86.65Q-350.149-86.65 -346.349-85.05Q-342.549-83.44 -340.289-80.82Q-338.029-78.21 -337.099-74.96Q-336.159-71.72 -336.159-68.45L-336.159-68.45Q-336.159-65.68 -336.589-63.34Q-337.019-61.01 -337.569-58.19L-337.569-58.19L-347.629-58.19L-347.629-62.26Q-347.629-69.1 -349.589-72.75Q-351.549-76.4 -355.979-76.4L-355.979-76.4Q-359.649-76.4 -361.459-74.36Q-363.269-72.32 -363.269-68.9L-363.269-68.9Q-363.269-67.09 -362.999-65.63Q-362.719-64.17 -362.189-62.94Q-361.659-61.71 -360.909-60.55Q-360.149-59.4 -359.199-58.14L-359.199-58.14L-344.059-39.83Q-339.939-34.45 -337.719-29.5Q-335.509-24.54 -335.509-19.01L-335.509-19.01Q-335.509-14.43 -336.939-10.76Q-338.379-7.09 -341.039-4.53Q-343.709-1.96 -347.479-0.58Q-351.249 0.8 -355.979 0.8L-355.979 0.8Q-361.809 0.8 -365.659-0.75Q-369.509-2.31 -371.799-4.88Q-374.089-7.44 -375.019-10.71Q-375.949-13.98 -375.949-17.4ZM-295.899 0.75L-295.899 0.75Q-298.109 0.75 -300.399 0.4Q-302.689 0.05 -304.829-1.06Q-306.959-2.16 -308.849-4.22Q-310.739-6.29 -312.139-9.66Q-313.549-13.03 -314.359-17.95Q-315.159-22.88 -315.159-29.72L-315.159-29.72L-315.159-40.59Q-315.159-47.33 -314.329-52.13Q-313.499-56.93 -312.069-60.2Q-310.639-63.47 -308.719-65.41Q-306.809-67.34 -304.679-68.37Q-302.539-69.4 -300.279-69.73Q-298.009-70.06 -295.849-70.06L-295.849-70.06Q-293.789-70.06 -291.579-69.76Q-289.359-69.45 -287.249-68.47Q-285.139-67.49 -283.249-65.56Q-281.369-63.62 -279.929-60.35Q-278.499-57.08 -277.669-52.23Q-276.839-47.38 -276.839-40.59L-276.839-40.59L-276.839-29.72Q-276.839-22.98 -277.689-18.11Q-278.549-13.23 -280.009-9.86Q-281.469-6.49 -283.379-4.4Q-285.289-2.31 -287.399-1.16Q-289.509 0 -291.699 0.38Q-293.889 0.75 -295.899 0.75ZM-295.799-9.05L-295.799-9.05Q-294.089-9.05 -292.909-9.93Q-291.729-10.81 -290.999-12.82Q-290.269-14.84 -289.939-18.13Q-289.609-21.42 -289.609-26.3L-289.609-26.3L-289.609-43.35Q-289.609-48.23 -289.939-51.55Q-290.269-54.87 -290.999-56.91Q-291.729-58.94 -292.909-59.85Q-294.089-60.75 -295.799-60.75L-295.799-60.75Q-297.609-60.75 -298.839-59.85Q-300.069-58.94 -300.879-56.91Q-301.679-54.87 -302.039-51.55Q-302.389-48.23 -302.389-43.35L-302.389-43.35L-302.389-26.3Q-302.389-21.42 -302.039-18.13Q-301.679-14.84 -300.879-12.82Q-300.069-10.81 -298.839-9.93Q-297.609-9.05 -295.799-9.05ZM-253.471-16.19L-253.471-69.25L-240.751-69.25L-240.751-17.2Q-240.751-12.62 -239.341-10.84Q-237.931-9.05 -235.211-9.05L-235.211-9.05Q-233.301-9.05 -231.491-10.11Q-229.681-11.17 -228.221-13.13L-228.221-13.13L-228.221-69.25L-215.501-69.25L-215.501 0L-225.211 0L-226.461-7.39L-226.511-7.39Q-228.021-5.03 -229.711-3.45Q-231.391-1.86 -233.231-0.93Q-235.061 0 -236.981 0.4Q-238.891 0.8 -240.801 0.8L-240.801 0.8Q-246.881 0.8 -250.181-3.42Q-253.471-7.64 -253.471-16.19L-253.471-16.19ZM-190.221 0L-190.221-69.25L-180.411-69.25L-179.261-61.86L-179.261-61.81Q-177.751-64.17 -176.011-65.76Q-174.281-67.34 -172.421-68.3Q-170.561-69.25 -168.621-69.66Q-166.681-70.06 -164.771-70.06L-164.771-70.06Q-158.691-70.06 -155.391-65.81Q-152.101-61.56 -152.101-53.06L-152.101-53.06L-152.101 0L-164.821 0L-164.821-52.61Q-164.821-57.18 -166.231-58.97Q-167.641-60.75 -170.361-60.75L-170.361-60.75Q-172.271-60.75 -174.151-59.5Q-176.041-58.24 -177.501-56.03L-177.501-56.03L-177.501 0L-190.221 0ZM-113.643 0.8L-113.643 0.8Q-114.803 0.8 -116.363 0.58Q-117.923 0.35 -119.583-0.45Q-121.243-1.26 -122.853-2.87Q-124.463-4.48 -125.713-7.27Q-126.973-10.06 -127.753-14.18Q-128.533-18.31 -128.533-24.19L-128.533-24.19L-128.533-46.17Q-128.533-52 -127.703-56.03Q-126.873-60.05 -125.513-62.69Q-124.163-65.33 -122.473-66.81Q-120.793-68.3 -119.103-69Q-117.423-69.71 -115.883-69.86Q-114.353-70.01 -113.343-70.01L-113.343-70.01Q-111.483-70.01 -109.823-69.5Q-108.163-69 -106.803-68.17Q-105.453-67.34 -104.393-66.31Q-103.333-65.28 -102.633-64.22L-102.633-64.22L-102.583-64.27L-102.983-73.03L-102.983-91.48L-90.313-91.48L-90.313 0L-100.223 0L-101.323-6.44Q-102.183-5.08 -103.283-3.77Q-104.393-2.46 -105.903-1.43Q-107.413-0.4 -109.323 0.2Q-111.233 0.8 -113.643 0.8ZM-109.323-9.05L-109.323-9.05Q-108.063-9.05 -107.083-9.48Q-106.103-9.91 -105.323-10.59Q-104.543-11.27 -103.963-12.17Q-103.383-13.08 -102.983-14.03L-102.983-14.03L-102.983-55.67Q-103.943-57.79 -105.523-59.27Q-107.113-60.75 -109.373-60.75L-109.373-60.75Q-110.783-60.75 -111.933-60.25Q-113.093-59.75 -113.953-58.36Q-114.803-56.98 -115.283-54.54Q-115.763-52.1 -115.763-48.23L-115.763-48.23L-115.763-21.68Q-115.763-17.8 -115.283-15.34Q-114.803-12.88 -113.953-11.49Q-113.093-10.11 -111.913-9.58Q-110.733-9.05 -109.323-9.05ZM-67.753-17.4L-67.753-17.4Q-67.753-20.17 -67.423-22.51Q-67.093-24.84 -66.443-27.56L-66.443-27.56L-56.333-27.56L-56.333-23.39Q-56.333-19.92 -55.903-17.25Q-55.483-14.58 -54.493-12.75Q-53.513-10.91 -51.883-9.98Q-50.243-9.05 -47.883-9.05L-47.883-9.05Q-44.163-9.05 -42.203-11.09Q-40.243-13.13 -40.243-17.05L-40.243-17.05Q-40.243-19.06 -40.513-20.75Q-40.793-22.43 -41.473-24.09Q-42.153-25.75 -43.303-27.59Q-44.463-29.42 -46.273-31.68L-46.273-31.68L-59.853-47.83Q-63.473-52.46 -65.433-57.16Q-67.393-61.86 -67.393-67.19L-67.393-67.19Q-67.393-71.47 -66.063-75.04Q-64.733-78.61 -62.213-81.2Q-59.703-83.79 -56.003-85.22Q-52.313-86.65 -47.633-86.65L-47.633-86.65Q-41.953-86.65 -38.153-85.05Q-34.353-83.44 -32.093-80.82Q-29.833-78.21 -28.903-74.96Q-27.963-71.72 -27.963-68.45L-27.963-68.45Q-27.963-65.68 -28.393-63.34Q-28.823-61.01 -29.373-58.19L-29.373-58.19L-39.433-58.19L-39.433-62.26Q-39.433-69.1 -41.393-72.75Q-43.353-76.4 -47.783-76.4L-47.783-76.4Q-51.453-76.4 -53.263-74.36Q-55.073-72.32 -55.073-68.9L-55.073-68.9Q-55.073-67.09 -54.803-65.63Q-54.523-64.17 -53.993-62.94Q-53.463-61.71 -52.713-60.55Q-51.953-59.4 -51.003-58.14L-51.003-58.14L-35.863-39.83Q-31.743-34.45 -29.523-29.5Q-27.313-24.54 -27.313-19.01L-27.313-19.01Q-27.313-14.43 -28.743-10.76Q-30.183-7.09 -32.843-4.53Q-35.513-1.96 -39.283-0.58Q-43.053 0.8 -47.783 0.8L-47.783 0.8Q-53.613 0.8 -57.463-0.75Q-61.313-2.31 -63.603-4.88Q-65.893-7.44 -66.823-10.71Q-67.753-13.98 -67.753-17.4ZM-7.773 13.33L-7.773 13.33Q-4.903 13.73 -2.493 13.15Q-0.073 12.57  1.657 10.96Q 3.397 9.35  4.427 6.71Q 5.457 4.07  5.607 0.4L 5.607 0.4L-10.783-69.25L 2.137-69.25L 9.427-30.93L 11.547-17.7L 11.947-17.7L 13.407-30.93L 19.287-69.25L 31.807-69.25L 17.227 2.56Q 16.267 7.54  14.787 11.27Q 13.307 14.99  11.117 17.45Q 8.927 19.92  5.907 21.15Q 2.887 22.38 -1.133 22.38L-1.133 22.38Q-4.403 22.38 -7.823 21.12L-7.823 21.12L-7.773 13.33ZM 52.01 0L 52.01-69.25L 61.82-69.25L 62.97-61.86L 62.97-61.81Q 64.48-64.17  66.22-65.76Q 67.95-67.34  69.81-68.3Q 71.67-69.25  73.61-69.66Q 75.55-70.06  77.46-70.06L 77.46-70.06Q 83.54-70.06  86.84-65.81Q 90.13-61.56  90.13-53.06L 90.13-53.06L 90.13 0L 77.41 0L 77.41-52.61Q 77.41-57.18  76-58.97Q 74.59-60.75  71.87-60.75L 71.87-60.75Q 69.96-60.75  68.08-59.5Q 66.19-58.24  64.73-56.03L 64.73-56.03L 64.73 0L 52.01 0ZM 131.449 0.75L 131.449 0.75Q 122.699 0.75  118.099-6.44Q 113.499-13.63  113.499-28.37L 113.499-28.37L 113.499-41.44Q 113.499-48.03  114.449-52.73Q 115.409-57.43  116.989-60.63Q 118.579-63.82  120.609-65.68Q 122.649-67.54  124.809-68.52Q 126.979-69.5  129.089-69.78Q 131.199-70.06  132.959-70.06L 132.959-70.06Q 136.479-70.06  139.399-69.13Q 142.319-68.2  144.429-66.31Q 146.539-64.43  147.699-61.56Q 148.849-58.69  148.849-54.82L 148.849-54.82Q 148.849-52.41  148.629-50.67Q 148.399-48.94  147.999-47.33L 147.999-47.33L 137.839-47.33L 137.839-49.64Q 137.839-54.87  136.609-57.81Q 135.369-60.75  132.559-60.75L 132.559-60.75Q 130.999-60.75  129.839-60.02Q 128.689-59.3  127.909-57.54Q 127.129-55.77  126.749-52.81Q 126.369-49.84  126.369-45.36L 126.369-45.36L 126.369-25.7Q 126.369-21.17  126.669-18Q 126.979-14.84  127.729-12.85Q 128.479-10.86  129.739-9.96Q 130.999-9.05  132.859-9.05L 132.859-9.05Q 133.819-9.05  134.719-9.53Q 135.629-10.01  136.309-11.11Q 136.979-12.22  137.409-14.06Q 137.839-15.89  137.839-18.61L 137.839-18.61L 137.839-20.77L 148.799-20.77L 148.799-18.11Q 148.799-8.25  144.449-3.75Q 140.099 0.75  131.449 0.75ZM 205.942 0L 205.942-85.9L 218.972-85.9L 218.972-49.94L 234.412-49.94L 234.412-85.9L 247.432-85.9L 247.432 0L 234.412 0L 234.412-39.68L 218.972-39.68L 218.972 0L 205.942 0ZM 273.52-16.19L 273.52-69.25L 286.24-69.25L 286.24-17.2Q 286.24-12.62  287.65-10.84Q 289.06-9.05  291.78-9.05L 291.78-9.05Q 293.69-9.05  295.5-10.11Q 297.31-11.17  298.77-13.13L 298.77-13.13L 298.77-69.25L 311.49-69.25L 311.49 0L 301.78 0L 300.53-7.39L 300.48-7.39Q 298.97-5.03  297.28-3.45Q 295.6-1.86  293.76-0.93Q 291.93 0  290.01 0.4Q 288.1 0.8  286.19 0.8L 286.19 0.8Q 280.11 0.8  276.81-3.42Q 273.52-7.64  273.52-16.19L 273.52-16.19ZM 336.769 0L 336.769-91.48L 349.489-91.48L 349.489-73.03L 349.089-63.87L 349.139-63.82Q 349.999-65.03  351.129-66.14Q 352.259-67.24  353.689-68.12Q 355.129-69  356.859-69.5Q 358.599-70.01  360.659-70.01L 360.659-70.01Q 361.709-70.01  363.199-69.81Q 364.679-69.61  366.259-68.8Q 367.849-68  369.429-66.41Q 371.019-64.83  372.249-62.06Q 373.479-59.3  374.259-55.17Q 375.039-51.05  375.039-45.16L 375.039-45.16L 375.039-24.19Q 375.039-18.31  374.259-14.18Q 373.479-10.06  372.219-7.27Q 370.969-4.48  369.359-2.87Q 367.749-1.26  366.089-0.45Q 364.429 0.35  362.869 0.58Q 361.309 0.8  360.149 0.8L 360.149 0.8Q 357.739 0.8  355.799 0.2Q 353.869-0.4  352.379-1.43Q 350.899-2.46  349.769-3.77Q 348.639-5.08  347.779-6.44L 347.779-6.44L 346.729 0L 336.769 0ZM 349.489-56.08L 349.489-14.03Q 349.889-13.08  350.469-12.17Q 351.049-11.27  351.809-10.59Q 352.559-9.91  353.569-9.48Q 354.569-9.05  355.829-9.05L 355.829-9.05Q 357.239-9.05  358.389-9.58Q 359.549-10.11  360.409-11.49Q 361.259-12.88  361.739-15.34Q 362.219-17.8  362.219-21.68L 362.219-21.68L 362.219-48.18Q 362.219-52.05  361.739-54.49Q 361.259-56.93  360.429-58.34Q 359.599-59.75  358.439-60.25Q 357.289-60.75  355.879-60.75L 355.879-60.75Q 353.519-60.75  351.979-59.37Q 350.449-57.99  349.489-56.08L 349.489-56.08Z"/>
    <g transform="matrix(0.11448105424642563, 0, 0, 0.11448105424642563, 2, 203.8214111328125)" data-uid="o_fdd456kbj_8">
      <path d="m432 160c-44.112 0-80-35.888-80-80s35.888-80 80-80 80 35.888 80 80-35.888 80-80 80zm0-120c-22.056 0-40 17.944-40 40s17.944 40 40 40 40-17.944 40-40-17.944-40-40-40z" transform="matrix(1, 0, 0, 1, 0, 0)" data-uid="o_fdd456kbj_9"/>
      <path d="m452 320c-143.364 0-260-116.636-260-260 0-33.084 26.916-60 60-60s60 26.916 60 60c0 77.196 62.804 140 140 140 33.084 0 60 26.916 60 60s-26.916 60-60 60zm-200-280c-11.028 0-20 8.972-20 20 0 121.309 98.691 220 220 220 11.028 0 20-8.972 20-20s-8.972-20-20-20c-99.252 0-180-80.748-180-180 0-11.028-8.972-20-20-20z" transform="matrix(1, 0, 0, 1, 0, 0)" data-uid="o_fdd456kbj_10"/>
      <path d="m80 512c-44.112 0-80-35.888-80-80s35.888-80 80-80 80 35.888 80 80-35.888 80-80 80zm0-120c-22.056 0-40 17.944-40 40s17.944 40 40 40 40-17.944 40-40-17.944-40-40-40z" transform="matrix(1, 0, 0, 1, 0, 0)" data-uid="o_fdd456kbj_11"/>
      <path d="m260 512c-33.084 0-60-26.916-60-60 0-77.196-62.804-140-140-140-33.084 0-60-26.916-60-60s26.916-60 60-60c143.364 0 260 116.636 260 260 0 33.084-26.916 60-60 60zm-200-280c-11.028 0-20 8.972-20 20s8.972 20 20 20c99.252 0 180 80.748 180 180 0 11.028 8.972 20 20 20s20-8.972 20-20c0-121.309-98.691-220-220-220z" transform="matrix(1, 0, 0, 1, 0, 0)" data-uid="o_fdd456kbj_12"/>
      <path d="m416 476c-33.084 0-60-26.916-60-60s26.916-60 60-60 60 26.916 60 60-26.916 60-60 60zm0-80c-11.028 0-20 8.972-20 20s8.972 20 20 20 20-8.972 20-20-8.972-20-20-20z" transform="matrix(1, 0, 0, 1, 0, 0)" data-uid="o_fdd456kbj_13"/>
      <path d="m96 156c-33.084 0-60-26.916-60-60s26.916-60 60-60 60 26.916 60 60-26.916 60-60 60zm0-80c-11.028 0-20 8.972-20 20s8.972 20 20 20 20-8.972 20-20-8.972-20-20-20z" transform="matrix(1, 0, 0, 1, 0, 0)" data-uid="o_fdd456kbj_14"/>
    </g>
</svg>
  <path d="M-92.8689026755182 106.00049609659905h697.7378053510364v287.5696703835446h-697.7378053510364z M0 0v512h512v-512z" class="css-1m35ybi"/>
  <g class="css-0" style="">
    <path class="_sw1 css-jzojre" d="M71.24946616903091 201.06370931168553L 511.99995528448403 198.80893527708045L512.370236525579 271.1894104756795L71.61974741012588 273.4441845102846 Z" fill="transparent" stroke="red"/>
    <path class="_sw1 css-jzojre" d="M2 203.8214111328125L 60.61429977416992 203.8214111328125L60.61429977416992 262.4357109069824L2 262.4357109069824 Z" fill="transparent" stroke="red"/>
  </g></svg>